<?xml version="1.0" encoding="UTF-8"?> <svg xmlns="http://www.w3.org/2000/svg" id="a" data-name="Layer 1" viewBox="0 0 204.07 83.83"><defs><style> .b { fill: #ef4623; } .c { fill: #010101; } .d { fill: #231f20; } </style></defs><g><path class="d" d="M125.64,77.03v-3.36c-1.3,1.97-3.21,3.71-6.19,3.71-3.62,0-7.31-2.92-7.31-7.81v-.06c0-4.89,3.68-7.87,7.31-7.87,3,0,4.95,1.71,6.19,3.59v-9.72h1.44v21.51h-1.44ZM125.73,69.49c0-3.86-3.01-6.45-6.13-6.45s-5.89,2.39-5.89,6.42v.06c0,3.95,2.74,6.48,5.89,6.48s6.13-2.62,6.13-6.45v-.06Z"></path><path class="d" d="M138.95,76.03c2.33,0,3.92-1.03,5.16-2.36l1,.88c-1.53,1.65-3.33,2.83-6.22,2.83-3.95,0-7.37-3.15-7.37-7.84v-.06c0-4.36,3.06-7.84,7.13-7.84s6.89,3.42,6.89,7.87v.06c0,.21,0,.29-.03.53h-12.46c.26,3.74,2.95,5.92,5.89,5.92ZM143.99,68.81c-.21-3.03-1.94-5.83-5.39-5.83-2.98,0-5.27,2.5-5.54,5.83h10.93Z"></path><path class="d" d="M154.62,77.33c-2.18,0-4.57-.88-6.16-2.18l.86-1.15c1.65,1.27,3.48,1.97,5.39,1.97,2.03,0,3.62-1.12,3.62-2.86v-.06c0-1.77-1.89-2.42-3.98-3-2.45-.71-5.16-1.44-5.16-4.13v-.06c0-2.42,2.03-4.15,4.95-4.15,1.8,0,3.83.65,5.33,1.65l-.77,1.21c-1.38-.91-3.04-1.5-4.62-1.5-2.06,0-3.42,1.12-3.42,2.62v.06c0,1.68,2.03,2.3,4.18,2.92,2.42.68,4.95,1.56,4.95,4.21v.06c0,2.68-2.3,4.39-5.19,4.39Z"></path><path class="d" d="M164.43,58.08v-1.97h1.8v1.97h-1.8ZM164.61,77.03v-15.03h1.44v15.03h-1.44Z"></path><path class="d" d="M178.34,81.8c-2.5,0-4.83-.77-6.89-2.3l.85-1.18c1.8,1.38,3.86,2.12,6.07,2.12,3.45,0,5.89-1.97,5.89-5.83v-2.18c-1.3,1.86-3.3,3.48-6.28,3.48-3.62,0-7.22-2.77-7.22-7.07v-.06c0-4.33,3.59-7.13,7.22-7.13,3,0,5.04,1.59,6.28,3.36v-3h1.44v12.7c0,4.57-3.09,7.1-7.37,7.1ZM184.35,68.75c0-3.48-3.09-5.72-6.22-5.72s-5.8,2.18-5.8,5.69v.06c0,3.39,2.71,5.75,5.8,5.75s6.22-2.3,6.22-5.72v-.06Z"></path><path class="d" d="M202.62,77.03v-8.93c0-3.09-1.74-5.13-4.77-5.13s-5.22,2.24-5.22,5.36v8.69h-1.44v-15.03h1.44v2.8c1-1.77,2.68-3.15,5.42-3.15,3.8,0,6.01,2.59,6.01,6.19v9.19h-1.44Z"></path></g><path class="b" d="M101.67,65.08c-.36.79-.62,1.4-.79,1.87-1.52,4.18-5.23,7.19-9.65,7.6-.14.01-.27.03-.41.04-28.64.74-57.29,3.93-86.1,9.17-2.15.39-4.22-.98-4.69-3.12h0c-.14-.66.29-1.31.95-1.42,2.7-.44,5.25-1.96,7.5-3.71,2.86.28,7.24-2.98,10.04.2.96-1.62,3.83-2.68,5.94-3.21-.29.4.1.69.46,1.2l1.06-.93-.36-.51c6.33.89,16.16-2.75,21.44-2.26.49-1.48,2.08-1.65,3.38-1.42l.93,1.06c1.15-2.71,3.24,1.92,4.83-.72.09,2.03,1.57-1.29,3.45-.51-.12.65-.45,1.27.13,1.81,1.75-1.03,5.85-5.24,8.58-2.96l6.32-1.57c-.33.61.06.91.24,1.16,1.7.52.74-1.66,1.35-1.33,2.52,2.23,5.99-.96,7.55-.91,5.39,1.17,7.54.43,11.85.08l2.17.38-.08.43c.93,1.06,2.06-2.77,3.88-.44"></path><g><path class="c" d="M133.58,3.7c5.43,0,10.56,1.72,14.64,4.83.3.23.72.21.99-.05.15-.14.29-.28.44-.43.39-.39.75-.77,1.11-1.13.36-.35.35-.95-.05-1.26C145.92,2.03,139.94.02,133.54.04c-14.75.03-20.34,7.52-20.33,14.57,0,5.96,4.52,12.12,13.77,12.12h13.9c7.04,0,10.25,4.31,10.25,8.3,0,7.62-9.17,11.09-17.68,11.09h0c-6.9,0-13.23-2.29-17.93-7.39-.35-.38-.92-.45-1.34-.14l-1.74,1.26c-.35.25-.41.76-.12,1.08,5.42,5.95,13.07,8.85,21.12,8.85h0c14.88,0,21.66-7.65,21.66-14.75,0-5.94-4.88-11.96-14.22-11.96h-13.89c-6.46,0-9.8-4.45-9.8-8.46,0-7.55,7.97-10.89,16.39-10.91Z"></path><rect class="c" x="54.23" y="1.07" width="3.65" height="47.62" rx=".66" ry=".66"></rect><path class="c" d="M24.93,49.76C10.69,49.76-.8,37.73.11,23.29.88,11.14,10.56,1.19,22.7.13c11.47-1,21.86,5.79,25.64,16.37.15.42-.09.89-.51,1.02l-2.04.66c-.34.11-.71-.08-.83-.42-3.22-9.06-12.11-14.89-21.93-14.03C12.65,4.63,4.38,13.14,3.72,23.52c-.78,12.34,9.04,22.62,21.21,22.62,9.03,0,16.99-5.63,20.01-14.07.13-.37.52-.57.89-.45l2.02.65c.42.13.65.59.5,1-3.53,9.89-12.84,16.48-23.42,16.48Z"></path><path class="c" d="M179.14,3.7c11.06,0,20.21,8.51,21.17,19.32h-18.97l-4.16-.06c-1.57,0-3.24,0-6.23,0-8.59,0-13.08,6.02-13.08,11.96,0,7.1,6.24,14.85,19.91,14.85h1.4c8.92,0,16.75-4.72,21.14-11.79v10.11c0,.41.33.74.74.74h2.21c.43,0,.79-.35.79-.79v-23.21h-.02c0-.63-.02-1.26-.07-1.86C202.97,10.19,192.22.04,179.17.04c-6.4-.01-12.39,1.99-17.17,5.62-.4.31-.42.9-.05,1.26.36.35.72.73,1.11,1.13.14.14.29.29.44.43.27.26.69.28.99.05,4.07-3.11,9.22-4.83,14.66-4.83h0ZM179.18,46.12h-1.4c-7.83,0-16.25-3.58-16.26-11.2,0-4,2.95-8.3,9.42-8.3,2.98,0,4.66,0,6.23,0l5.53.06h17.62c-.9,10.87-10.04,19.44-21.14,19.44Z"></path><path class="c" d="M107.01,26.79h-41.09c.96,10.83,10.08,19.35,21.15,19.35,6.24,0,12.07-2.69,16.12-7.41.29-.34.8-.4,1.15-.12l1.58,1.26c.36.29.42.82.12,1.17-5.16,6.07-12.83,9.31-20.91,8.7-12.32-.94-22.2-11.02-22.91-23.35C61.38,11.98,72.85,0,87.07,0c12.79,0,22.61,9.55,23.66,22.57,0,0,.76,4.22-3.72,4.22ZM65.9,23.12h41.2c-.8-11.21-9.14-19.46-20.03-19.46-11.11,0-20.26,8.58-21.16,19.46Z"></path></g></svg> 